<svg xmlns="http://www.w3.org/2000/svg" width="76" height="76"><switch><g><path d="M73.387 36.366H69.52c-.608 0-1.195.138-1.727.388l-1.67-14.215a2.267 2.267 0 0 0 1.118-1.959 4.11 4.11 0 0 0-4.104-4.105h-37.16V6.365a6.373 6.373 0 0 0-6.366-6.366H6.366A6.373 6.373 0 0 0 0 6.365V19.61a6.373 6.373 0 0 0 6.366 6.366h7.114l-.314 2.678c-.005.027-.022.049-.025.078l-.926 8.023a4.056 4.056 0 0 0-1.727-.388H6.62a2.616 2.616 0 0 0-2.612 2.613v2.642a2.615 2.615 0 0 0 2.612 2.612h.87a8.093 8.093 0 0 0-.811 3.54v10.819a4.03 4.03 0 0 0 1.019 2.681 3.18 3.18 0 0 0-1.019 2.332v1.781a3.195 3.195 0 0 0 3.191 3.192h.668v4.527a2.899 2.899 0 0 0 2.895 2.895h5.641a2.899 2.899 0 0 0 2.895-2.895v-4.527h35.18v4.527a2.899 2.899 0 0 0 2.895 2.895h5.641a2.899 2.899 0 0 0 2.895-2.895v-4.527h1.559a3.194 3.194 0 0 0 3.191-3.192v-1.781a3.18 3.18 0 0 0-1.019-2.332 4.032 4.032 0 0 0 1.019-2.681v-10.82a8.096 8.096 0 0 0-.811-3.54h.87a2.615 2.615 0 0 0 2.612-2.612v-2.642a2.618 2.618 0 0 0-2.614-2.613zm-47.41-17.664h37.161a1.88 1.88 0 0 1 1.878 1.878c0 .006 0 .021-.015.036-.015.015-.03.015-.037.015H26.009a7.69 7.69 0 0 1-.033-.697v-1.232zm.388 9.889c.43 0 .853-.161 1.191-.472.566-.521.73-1.312.419-2.015l-1.331-3.011c-.034-.077-.065-.156-.096-.233H63.92l1.974 16.806a8.265 8.265 0 0 0-.707-.033h-4.913c-1.093-3.143-4.115-5.344-7.504-5.344-3.389 0-6.412 2.201-7.504 5.344H14.821c-.238 0-.474.013-.707.033l1.181-10.192c.005-.028.022-.051.025-.08l.401-3.417h3.408c1.301 0 2.592.329 3.735.951l2.649 1.444c.272.146.563.219.852.219zm36.047 13.268-1.264 1.679a1.38 1.38 0 0 1-1.098.547H19.957c-.429 0-.84-.204-1.098-.548l-1.264-1.679h44.817zM47.68 39.632c.961-1.866 2.921-3.117 5.09-3.117s4.129 1.251 5.09 3.117H47.68zM6.366 23.749a4.144 4.144 0 0 1-4.139-4.14V6.365a4.143 4.143 0 0 1 4.139-4.139h13.245a4.144 4.144 0 0 1 4.139 4.139v13.57a9.97 9.97 0 0 0 .857 4.058l.785 1.776-1.463-.797a10.06 10.06 0 0 0-4.8-1.222H6.366zm.254 18.258a.386.386 0 0 1-.386-.386v-2.642c0-.213.173-.386.386-.386h3.867c.562 0 1.086.258 1.43.688l-.109.931a8.15 8.15 0 0 0-2.728 1.795H6.62zm13.122 31.098c0 .369-.3.668-.668.668h-5.641a.67.67 0 0 1-.668-.668v-4.527h6.977v4.527zm46.61 0c0 .369-.3.668-.668.668h-5.641a.67.67 0 0 1-.668-.668v-4.527h6.977v4.527zm4.749-7.719a.966.966 0 0 1-.965.965H9.871a.966.966 0 0 1-.965-.965v-1.781c0-.533.433-.965.965-.965h60.266c.532 0 .965.432.965.965v1.781zm0-6.794a1.823 1.823 0 0 1-1.821 1.821H10.727a1.823 1.823 0 0 1-1.821-1.821V47.773a5.92 5.92 0 0 1 5.902-5.914l2.273 3.018a3.621 3.621 0 0 0 2.876 1.435h40.094c1.125 0 2.2-.537 2.876-1.435l2.273-3.019a5.923 5.923 0 0 1 5.902 5.915v10.819zm2.672-16.971a.386.386 0 0 1-.386.386h-2.459a8.18 8.18 0 0 0-2.728-1.795l-.109-.931a1.829 1.829 0 0 1 1.43-.688h3.867c.213 0 .386.173.386.386v2.642zm-55.86 5.73h-2.362a4.424 4.424 0 0 0-4.419 4.419v1.982a3.846 3.846 0 0 0 3.842 3.842h5.557a3.816 3.816 0 0 0 3.812-3.812 6.437 6.437 0 0 0-6.43-6.431zm2.619 8.015h-5.557a1.618 1.618 0 0 1-1.616-1.616v-1.982c0-1.208.983-2.192 2.192-2.192h2.362a4.209 4.209 0 0 1 4.204 4.204c0 .875-.711 1.586-1.585 1.586zm43.924-8.015h-2.362a6.437 6.437 0 0 0-6.43 6.43 3.816 3.816 0 0 0 3.812 3.812h5.557a3.846 3.846 0 0 0 3.842-3.842v-1.982a4.423 4.423 0 0 0-4.419-4.418zm2.192 6.4c0 .89-.725 1.616-1.616 1.616h-5.557a1.588 1.588 0 0 1-1.585-1.586 4.209 4.209 0 0 1 4.204-4.204h2.362c1.209 0 2.192.984 2.192 2.192v1.982zm-20.632-6.252H33.992a5.87 5.87 0 0 0-5.863 5.863 5.87 5.87 0 0 0 5.863 5.863h12.023a5.87 5.87 0 0 0 5.863-5.863 5.87 5.87 0 0 0-5.862-5.863zm0 9.501H33.992a3.642 3.642 0 0 1-3.637-3.637 3.64 3.64 0 0 1 3.637-3.636h12.023a3.64 3.64 0 0 1 3.637 3.636A3.64 3.64 0 0 1 46.016 57zM12.691 9.611a3.492 3.492 0 0 0-3.488 3.488 3.493 3.493 0 0 0 3.488 3.489 3.492 3.492 0 0 0 3.488-3.489 3.491 3.491 0 0 0-3.488-3.488zm0 4.75a1.263 1.263 0 0 1-1.262-1.262c0-.695.566-1.262 1.262-1.262s1.262.566 1.262 1.262c0 .695-.566 1.262-1.262 1.262zm7.512 1.85a3.66 3.66 0 0 0 1.765-3.112 3.656 3.656 0 0 0-1.765-3.111 3.657 3.657 0 0 0-.952-3.449 3.657 3.657 0 0 0-3.449-.952 3.657 3.657 0 0 0-3.111-1.765 3.66 3.66 0 0 0-3.112 1.765 3.657 3.657 0 0 0-3.448.952 3.66 3.66 0 0 0-.952 3.449 3.656 3.656 0 0 0-1.765 3.111 3.66 3.66 0 0 0 1.765 3.112 3.656 3.656 0 0 0 .952 3.448 3.653 3.653 0 0 0 3.448.952c.644 1.062 1.815 1.766 3.112 1.766s2.467-.704 3.111-1.766a3.657 3.657 0 0 0 3.449-.952 3.656 3.656 0 0 0 .952-3.448zm-2.39.042a1.415 1.415 0 0 1-.136 1.831 1.417 1.417 0 0 1-1.832.136 1.115 1.115 0 0 0-1.763.73 1.416 1.416 0 0 1-1.391 1.199A1.415 1.415 0 0 1 11.3 18.95a1.112 1.112 0 0 0-1.763-.73 1.415 1.415 0 0 1-1.831-.136 1.416 1.416 0 0 1-.136-1.832 1.113 1.113 0 0 0-.73-1.762 1.417 1.417 0 0 1-1.199-1.392c0-.69.515-1.289 1.199-1.391a1.116 1.116 0 0 0 .73-1.763 1.414 1.414 0 0 1 .136-1.831 1.417 1.417 0 0 1 1.832-.136 1.113 1.113 0 0 0 1.763-.73 1.414 1.414 0 0 1 1.39-1.199c.691 0 1.289.515 1.391 1.199a1.112 1.112 0 0 0 1.763.73 1.416 1.416 0 0 1 1.832.136c.489.488.547 1.276.136 1.831a1.113 1.113 0 0 0 .73 1.763 1.415 1.415 0 0 1 1.199 1.391c0 .691-.515 1.289-1.199 1.392a1.113 1.113 0 0 0-.73 1.763z" fill="#3470FF"/></g></switch></svg>