<!-- Generated by IcoMoon.io -->
<svg version="1.1" xmlns="http://www.w3.org/2000/svg" width="919" height="1024" viewBox="0 0 919 1024">
<title></title>
<g id="icomoon-ignore">
</g>
<path d="M471.579 558.883c-1.044-0.237-2.243-0.374-3.473-0.374-0.845 0-1.676 0.064-2.486 0.188l0.091-0.011c-19.589-2.245-34.373-18.513-34.399-37.879 0-9.269-7.654-16.793-17.108-16.793s-17.108 7.523-17.108 16.793c0.053 32.325 22.071 60.645 53.818 69.192v16.806c0 9.269 7.668 16.806 17.108 16.806s17.108-7.523 17.108-16.806v-15.782c36.644-7.523 61.551-41.030 57.704-77.582-3.86-36.552-35.24-64.334-72.672-64.348-21.454 0-38.85-17.081-38.85-38.141s17.397-38.141 38.85-38.141 38.85 17.081 38.85 38.141c0 9.269 7.654 16.806 17.108 16.806s17.108-7.523 17.108-16.806c-0.053-33.94-24.276-63.218-58.098-70.216v-15.296c0-9.269-7.668-16.806-17.108-16.806s-17.108 7.536-17.108 16.806v16.32c-35.305 9.453-58.032 43.117-53.174 78.738s35.817 62.194 72.422 62.181c21.178 0 38.443 16.635 38.824 37.419 0.381 20.771-16.254 38.036-37.406 38.784zM470.148 710.764c137.032 0 248.121-109.067 248.121-243.591s-111.089-243.578-248.121-243.578c-136.967 0.131-247.963 109.106-248.121 243.578 0 134.538 111.089 243.591 248.121 243.591zM470.148 257.18c118.139 0 213.906 94.020 213.906 209.993s-95.766 210.006-213.906 210.006-213.906-94.020-213.906-210.006c0.144-115.92 95.832-209.862 213.906-209.993zM916.774 786.312c-22.661-39.467-72.908-54.5-114.148-34.137l-134.039 62.168c-18.513-33.782-54.002-55.301-93.075-56.378l-123.732-3.348c-20.609-0.593-39.874-5.791-56.979-14.594l0.745 0.348-12.591-6.407c-29.845-15.555-65.176-24.679-102.638-24.679-37.635 0-73.119 9.208-104.322 25.495l1.247-0.593 0.788-28.005c0.002-0.095 0.003-0.206 0.003-0.318 0-9.249-7.413-16.766-16.622-16.934h-0.016l-135.68-3.676c-0.183-0.007-0.399-0.011-0.615-0.011-9.151 0-16.609 7.246-16.951 16.313l-0.001 0.031-8.193 292.302c-0.002 0.095-0.003 0.206-0.003 0.318 0 9.249 7.413 16.766 16.622 16.934h0.016l136.153 3.676c9.269 0 16.858-7.247 17.108-16.333l0.394-13.996 35.253-18.526c8.31-4.473 18.186-7.101 28.675-7.101 5.856 0 11.52 0.819 16.885 2.349l-0.433-0.106 210.492 57.993c0.291 0.094 0.666 0.19 1.049 0.265l0.067 0.011c13.95 2.978 29.977 4.684 46.402 4.684 34.499 0 67.24-7.524 96.673-21.021l-1.447 0.595c0.836-0.383 1.534-0.764 2.202-1.187l-0.075 0.045 305.195-193.804c4.715-2.99 7.799-8.182 7.799-14.094 0-3.046-0.819-5.902-2.249-8.357l0.043 0.079zM136.095 980.785l-101.465-2.757 7.247-258.743 101.478 2.744-7.261 258.756zM588.432 973.63c-23.484 10.649-50.923 16.855-79.811 16.855-13.741 0-27.154-1.404-40.104-4.077l1.277 0.22-209.927-57.848c-7.716-2.229-16.579-3.511-25.741-3.511-16.382 0-31.807 4.098-45.305 11.325l0.515-0.252-18.014 9.466 4.819-172.022c29.392-19.372 65.442-30.903 104.185-30.903 31.714 0 61.624 7.727 87.95 21.4l-1.061-0.502 12.591 6.407c20.664 10.684 44.997 17.252 70.79 17.995l0.24 0.005 123.745 3.335c34.754 0.998 64.269 25.287 71.319 58.715l-184.325-4.989c-0.176-0.007-0.383-0.010-0.59-0.010-9.158 0-16.626 7.241-16.989 16.31l-0.001 0.033c-0.002 0.095-0.003 0.206-0.003 0.318 0 9.249 7.413 16.766 16.622 16.934h0.016l203.888 5.501c0.039 0 0.084 0 0.13 0 9.154 0 16.616-7.246 16.964-16.315l0.001-0.032c0.028-0.902 0.044-1.964 0.044-3.029 0-6.634-0.618-13.124-1.799-19.415l0.101 0.649 137.886-63.954c6.877-3.49 14.994-5.534 23.589-5.534 13.69 0 26.169 5.186 35.579 13.701l-0.046-0.041-288.533 183.261zM470.148 193.161c9.453 0 17.108-7.523 17.108-16.793v-159.589c0-9.269-7.668-16.806-17.108-16.806s-17.108 7.536-17.108 16.806v159.576c0 9.283 7.668 16.806 17.108 16.806zM598.489 193.161c9.453 0 17.108-7.523 17.108-16.793v-75.6c0-9.269-7.668-16.806-17.108-16.806-9.453 0-17.108 7.523-17.108 16.806v75.586c0 9.283 7.654 16.806 17.108 16.806zM341.821 193.161c9.453 0 17.108-7.523 17.108-16.793v-75.6c0-9.269-7.654-16.806-17.108-16.806s-17.108 7.523-17.108 16.806v75.586c0 9.283 7.654 16.806 17.108 16.806z" fill="#3470FF"></path>
</svg>
