<!-- Generated by IcoMoon.io -->
<svg version="1.1" xmlns="http://www.w3.org/2000/svg" width="1053" height="1024" viewBox="0 0 1053 1024">
<title></title>
<g id="icomoon-ignore">
</g>
<path d="M1000.591 393.886v-270.329c0-9.743-7.856-17.657-17.555-17.657h-158.87c-203.357-165.38-501.495-133.621-665.91 70.921-47.127 58.273-81.112 129.107-96.321 206.67l-0.494 3.022c-37.524 29.339-61.424 74.606-61.442 125.455v70.632c0.117 81.747 61.793 150.108 142.676 158.124 9.187 37.83 47.12 61.003 84.716 51.772 30.945-7.866 53.469-35.479 53.469-68.352 0-0.101 0-0.202-0.001-0.302v0.016-353.114c0.088-38.928-31.233-70.57-69.941-70.658-32.938 0.005-60.576 22.693-68.143 53.294l-0.101 0.482c-13.78 1.39-27.312 4.608-40.259 9.567 61.837-235.336 301.634-375.716 535.625-313.528 47.87 12.943 89.807 32.121 127.647 57.018l-1.648-1.018h-237.413c-9.699 0-17.555 7.9-17.555 17.657v282.5c0 9.758 7.856 17.657 17.555 17.657h96.551l47.398 63.563c3.224 4.305 8.312 7.061 14.044 7.061s10.82-2.756 14.011-7.016l0.033-0.046 47.398-63.563h26.332v300.142c-0.088 38.942 31.233 70.57 69.941 70.658 32.938-0.005 60.576-22.693 68.143-53.294l0.101-0.482c13.809-1.419 26.464-4.414 38.428-8.834l-1.080 0.349v44.574c-0.102 87.715-70.775 158.783-157.993 158.9h-87.774v-17.657c0-9.743-7.856-17.643-17.555-17.643h-76.919c-12.146-10.902-28.267-17.591-45.95-17.657h-70.233c-38.781 0-70.219 31.613-70.219 70.629 0 39.001 31.438 70.614 70.219 70.614h70.219c17.695-0.080 33.813-6.765 46.030-17.715l-0.066 0.058h76.919c9.699 0 17.555-7.9 17.555-17.657v-17.657h87.774c106.587-0.117 192.971-86.998 193.102-194.214v-62.188c42.605-29.001 70.219-77.271 70.219-131.992 0-0.017 0-0.035 0-0.052v0.003-70.629c0-0.057 0-0.125 0-0.193 0-46.762-20.277-88.787-52.519-117.763l-0.145-0.129zM175.547 370.743c0-19.5 15.712-35.314 35.109-35.314s35.109 15.814 35.109 35.314v353.114c0 19.515-15.712 35.314-35.109 35.314s-35.109-15.799-35.109-35.314v-353.114zM140.438 389.643v315.283c-60.418-8.851-105.255-60.93-105.328-122.327v-70.629c0.073-61.398 44.911-113.462 105.328-122.327zM561.737 988.685h-70.219c-19.398 0-35.109-15.799-35.109-35.314 0-0.035 0-0.076 0-0.117 0-19.408 15.708-35.147 35.105-35.197h70.224c19.398 0 35.109 15.814 35.109 35.314 0 0.030 0 0.066 0 0.103 0 19.411-15.707 35.154-35.104 35.212h-0.006zM667.066 971.027h-37.596c1.581-5.289 2.49-11.367 2.49-17.657s-0.91-12.368-2.605-18.109l0.114 0.452h37.596v35.314zM877.708 723.842c0 0.035 0 0.076 0 0.117 0 19.408-15.708 35.147-35.105 35.197h-0.005c-19.398 0-35.109-15.799-35.109-35.314v-300.142h70.219v300.142zM737.285 388.4c-5.53 0-10.723 2.619-14.044 7.066l-38.62 51.772-38.62-51.772c-3.226-4.303-8.312-7.060-14.043-7.066h-87.775v-247.185h421.299v247.185h-228.197zM1018.146 582.599c-0.073 61.383-44.926 113.418-105.328 122.181v-281.081h68.346c22.831 22.399 36.982 53.574 36.982 88.055 0 0.076 0 0.152 0 0.227v-0.012 70.629zM665.471 176.529h-33.69v35.314h33.69v-35.314zM702.175 211.843h228.212v-35.314h-228.212v35.314zM579.292 282.457h351.080v-35.314h-351.080v35.314zM579.292 353.086h351.080v-35.314h-351.080v35.314z" fill="#3470FF"></path>
</svg>
