<!-- Generated by IcoMoon.io -->
<svg version="1.1" xmlns="http://www.w3.org/2000/svg" width="1024" height="1024" viewBox="0 0 1024 1024">
<title></title>
<g id="icomoon-ignore">
</g>
<path d="M784.968 397.086v-267.998c0-6.778-4.029-12.922-10.241-15.631l-256.087-112.069c-2.012-0.901-4.361-1.425-6.832-1.425s-4.82 0.525-6.94 1.468l0.109-0.043-256.060 112.069c-6.212 2.708-10.241 8.853-10.241 15.631v267.971c0.104 62.336 30.528 117.543 77.309 151.677l0.535 0.372 176.977 127.619c5.075 3.706 11.437 5.93 18.319 5.93s13.244-2.224 18.408-5.992l-0.089 0.062 176.977-127.605c47.328-34.49 77.761-89.699 77.857-152.020v-0.015zM687.142 521.444l-175.319 126.42-175.333-126.433c-38.707-28.216-63.597-73.372-63.681-124.345v-256.841l239.001-104.604 239.001 104.604v256.828c-0.074 50.99-24.961 96.152-63.23 124.067l-0.438 0.304zM706.438 158.099l-187.783-82.196c-2.012-0.901-4.361-1.425-6.832-1.425s-4.82 0.525-6.94 1.468l0.109-0.043-187.783 82.196c-6.212 2.722-10.241 8.853-10.241 15.644v223.343c0.059 39.64 19.41 74.748 49.165 96.444l0.341 0.237 145.365 104.833c5.969 4.298 14.014 4.298 19.969 0l145.365-104.833c30.096-21.933 49.447-57.041 49.506-96.672v-223.352c0-6.791-4.029-12.922-10.241-15.644zM682.534 397.086c-0.060 28.29-13.871 53.342-35.101 68.835l-0.243 0.169-135.38 97.638-135.38-97.638c-21.473-15.662-35.284-40.714-35.344-68.994v-212.209l170.711-74.704 170.724 74.704v212.199zM426.461 819.248v-31.773c0.526-40.424-12.666-79.838-37.419-111.8-14.391-18.801-33.715-33.156-56.048-41.219l-0.855-0.27c-37.661-16.053-69.994-37.159-97.969-62.926l0.237 0.215c-13.459-11.15-30.903-17.914-49.927-17.914-16.155 0-31.171 4.878-43.655 13.242l0.284-0.179-36.921-86.265c-8.9-18.663-27.616-31.33-49.29-31.33-30.065 0-54.438 24.373-54.438 54.438 0 7.522 1.525 14.687 4.284 21.204l-0.134-0.357 66.902 147.144c9.524 20.721 21.976 38.428 37.066 53.492l105.212 105.212c-5.712 6.048-9.231 14.219-9.257 23.212v136.558c0.008 18.852 15.292 34.131 34.145 34.131h187.783c18.853 0 34.137-15.28 34.145-34.131v-136.554c-0.008-18.852-15.292-34.131-34.145-34.131v0zM132.712 700.819c-12.266-12.244-22.386-26.632-29.751-42.556l-0.379-0.913-66.902-147.144c-1.157-2.472-1.831-5.368-1.831-8.422 0-11.2 9.079-20.279 20.279-20.279 0.009 0 0.018 0 0.027 0h-0.001c8.125 0 15.455 4.837 18.649 12.302l38.187 89.041c10.705 24.709 25.221 45.804 43.047 63.583l77.983 77.997c3.121 3.309 7.534 5.368 12.429 5.368 9.429 0 17.072-7.644 17.072-17.072 0-4.895-2.060-9.308-5.36-12.421l-77.986-78c-7.667-7.641-14.594-16.014-20.67-25.009l-0.378-0.593c7.409-5.745 16.837-9.21 27.075-9.21 10.755 0 20.616 3.824 28.3 10.186l-0.074-0.060c30.827 28.355 66.9 51.609 106.504 68.075l2.411 0.889c16.744 6.209 30.677 16.713 40.895 30.189l0.162 0.224c18.682 24.133 29.946 54.829 29.946 88.156 0 0.818-0.007 1.634-0.020 2.449l0.002-0.123v31.773h-141.174l-118.443-118.429zM426.461 989.918h-187.783v-136.539h187.783v136.539zM358.171 938.714h17.072c9.429 0 17.072-7.644 17.072-17.072s-7.644-17.072-17.072-17.072v0h-17.072c-9.429 0-17.072 7.644-17.072 17.072s7.644 17.072 17.072 17.072v0zM1013.715 469.66c-10.008-13.715-26.027-22.524-44.102-22.524-22.408 0-41.654 13.539-50.004 32.884l-0.136 0.353-36.84 85.942c-12.176-8.103-27.139-12.929-43.229-12.929-19.122 0-36.652 6.817-50.292 18.154l0.129-0.104c-27.735 25.557-60.069 46.664-95.533 61.873l-2.199 0.839c-23.186 8.342-42.509 22.701-56.687 41.208l-0.216 0.294c-23.347 29.914-37.435 68.045-37.435 109.467 0 0.839 0.006 1.677 0.017 2.513l-0.001-0.127v31.773c-18.853 0-34.137 15.28-34.145 34.131v136.554c0 18.85 15.281 34.131 34.131 34.131 0.005 0 0.009 0 0.014 0h187.796c18.853 0 34.137-15.28 34.145-34.131v-136.58c-0.019-8.999-3.54-17.173-9.272-23.233l0.015 0.016 105.21-105.21c15.093-15.067 27.545-32.774 36.603-52.371l0.466-1.124 66.902-147.144c3.152-6.678 4.992-14.506 4.992-22.764 0-11.981-3.873-23.057-10.435-32.044l0.107 0.154zM784.968 989.918h-187.797v-136.539h187.797v136.539zM987.897 510.206l-66.902 147.144c-7.741 16.838-17.862 31.227-30.127 43.467l-118.377 118.418h-141.174v-31.773c-0.011-0.672-0.018-1.465-0.018-2.26 0-33.34 11.264-64.049 30.193-88.53l-0.248 0.334c10.357-13.7 24.262-24.21 40.357-30.236l0.62-0.203c42.025-17.339 78.104-40.595 109.187-69.197l-0.257 0.234c7.633-6.376 17.551-10.248 28.372-10.248 10.214 0 19.623 3.449 27.125 9.246l-0.103-0.076c-6.478 9.658-13.442 18.089-21.151 25.773l-77.982 77.996c-2.74 3.019-4.418 7.046-4.418 11.465 0 9.436 7.65 17.086 17.086 17.086 4.419 0 8.446-1.678 11.479-4.431l-0.014 0.013 77.978-77.992c17.838-17.778 32.355-38.875 42.548-62.288l0.504-1.299 38.187-89.068c3.172-7.302 10.321-12.315 18.641-12.315 7.134 0 13.407 3.686 17.019 9.258l0.048 0.079c3.759 5.835 4.285 13.124 1.428 19.404zM648.389 938.714h17.072c9.429 0 17.072-7.644 17.072-17.072s-7.644-17.072-17.072-17.072v0h-17.072c-9.429 0-17.072 7.644-17.072 17.072s7.644 17.072 17.072 17.072v0zM419.629 361.809c-2.695-1.86-6.032-2.972-9.629-2.972-9.436 0-17.086 7.65-17.086 17.086 0 5.296 2.409 10.029 6.191 13.163l0.028 0.023 68.29 51.204c2.818 2.125 6.379 3.404 10.238 3.404 5.894 0 11.092-2.982 14.167-7.521l0.038-0.060 136.593-204.815c1.6-2.553 2.549-5.655 2.549-8.979 0-9.436-7.65-17.086-17.086-17.086-5.689 0-10.729 2.78-13.834 7.056l-0.034 0.049-126.568 189.818-53.858-40.37z" fill="#3470FF"></path>
</svg>
